<svg xmlns="http://www.w3.org/2000/svg" xmlns:xlink="http://www.w3.org/1999/xlink" width="48" zoomAndPan="magnify" viewBox="0 0 36 36.000001" height="48" preserveAspectRatio="xMidYMid meet" version="1.0"><defs><g/><clipPath id="70f73b3bd2"><path d="M 0.488281 0 L 35.511719 0 L 35.511719 35.027344 L 0.488281 35.027344 Z M 0.488281 0 " clip-rule="nonzero"/></clipPath><clipPath id="c8c6c15006"><path d="M 8.511719 0 L 27.488281 0 C 31.917969 0 35.511719 3.59375 35.511719 8.027344 L 35.511719 27 C 35.511719 31.433594 31.917969 35.027344 27.488281 35.027344 L 8.511719 35.027344 C 4.082031 35.027344 0.488281 31.433594 0.488281 27 L 0.488281 8.027344 C 0.488281 3.59375 4.082031 0 8.511719 0 Z M 8.511719 0 " clip-rule="nonzero"/></clipPath><clipPath id="5539136c19"><path d="M 0.488281 0 L 35.511719 0 L 35.511719 35.027344 L 0.488281 35.027344 Z M 0.488281 0 " clip-rule="nonzero"/></clipPath><clipPath id="7c6647b935"><path d="M 8.511719 0 L 27.488281 0 C 31.917969 0 35.511719 3.59375 35.511719 8.027344 L 35.511719 27 C 35.511719 31.433594 31.917969 35.027344 27.488281 35.027344 L 8.511719 35.027344 C 4.082031 35.027344 0.488281 31.433594 0.488281 27 L 0.488281 8.027344 C 0.488281 3.59375 4.082031 0 8.511719 0 Z M 8.511719 0 " clip-rule="nonzero"/></clipPath><clipPath id="37a0f3e5e1"><rect x="0" width="36" y="0" height="36"/></clipPath></defs><g clip-path="url(#70f73b3bd2)"><g clip-path="url(#c8c6c15006)"><g transform="matrix(1, 0, 0, 1, 0.000000000000000056, 0.000000000000010582)"><g clip-path="url(#37a0f3e5e1)"><g clip-path="url(#5539136c19)"><g clip-path="url(#7c6647b935)"><path fill="#282d33" d="M 0.488281 0 L 35.511719 0 L 35.511719 35.027344 L 0.488281 35.027344 Z M 0.488281 0 " fill-opacity="1" fill-rule="nonzero"/></g></g></g></g></g></g><g fill="#ffffff" fill-opacity="1"><g transform="translate(3.523267, 25.248687)"><g><path d="M 7.390625 0.234375 C 6.234375 0.234375 5.203125 0.09375 4.296875 -0.1875 C 3.398438 -0.46875 2.648438 -0.835938 2.046875 -1.296875 C 1.453125 -1.765625 0.992188 -2.28125 0.671875 -2.84375 L 2.484375 -5.046875 L 2.765625 -5.046875 C 3.265625 -4.304688 3.898438 -3.710938 4.671875 -3.265625 C 5.453125 -2.828125 6.359375 -2.609375 7.390625 -2.609375 C 8.265625 -2.609375 8.925781 -2.796875 9.375 -3.171875 C 9.820312 -3.546875 10.046875 -4.054688 10.046875 -4.703125 C 10.046875 -5.097656 9.972656 -5.425781 9.828125 -5.6875 C 9.691406 -5.957031 9.453125 -6.1875 9.109375 -6.375 C 8.773438 -6.570312 8.328125 -6.738281 7.765625 -6.875 L 5.625 -7.359375 C 4.125 -7.703125 3.003906 -8.269531 2.265625 -9.0625 C 1.535156 -9.863281 1.171875 -10.894531 1.171875 -12.15625 C 1.171875 -13.101562 1.40625 -13.929688 1.875 -14.640625 C 2.351562 -15.359375 3.039062 -15.914062 3.9375 -16.3125 C 4.832031 -16.707031 5.910156 -16.90625 7.171875 -16.90625 C 8.453125 -16.90625 9.550781 -16.734375 10.46875 -16.390625 C 11.382812 -16.054688 12.15625 -15.539062 12.78125 -14.84375 L 11.15625 -12.609375 L 10.875 -12.609375 C 10.40625 -13.097656 9.863281 -13.46875 9.25 -13.71875 C 8.644531 -13.96875 7.953125 -14.09375 7.171875 -14.09375 C 6.265625 -14.09375 5.578125 -13.929688 5.109375 -13.609375 C 4.640625 -13.285156 4.40625 -12.84375 4.40625 -12.28125 C 4.40625 -11.757812 4.566406 -11.34375 4.890625 -11.03125 C 5.222656 -10.71875 5.796875 -10.472656 6.609375 -10.296875 L 8.796875 -9.84375 C 10.421875 -9.5 11.597656 -8.921875 12.328125 -8.109375 C 13.054688 -7.296875 13.421875 -6.226562 13.421875 -4.90625 C 13.421875 -3.863281 13.195312 -2.957031 12.75 -2.1875 C 12.300781 -1.414062 11.625 -0.816406 10.71875 -0.390625 C 9.8125 0.0234375 8.703125 0.234375 7.390625 0.234375 Z M 7.390625 0.234375 "/></g></g></g><g fill="#ffffff" fill-opacity="1"><g transform="translate(16.412813, 25.248687)"><g><path d="M 2.171875 0 L 2.171875 -16.671875 L 9.28125 -16.671875 C 10.300781 -16.671875 11.164062 -16.507812 11.875 -16.1875 C 12.59375 -15.863281 13.132812 -15.398438 13.5 -14.796875 C 13.863281 -14.203125 14.046875 -13.5 14.046875 -12.6875 C 14.046875 -11.945312 13.863281 -11.296875 13.5 -10.734375 C 13.144531 -10.171875 12.632812 -9.71875 11.96875 -9.375 L 11.96875 -9.140625 C 13.019531 -8.867188 13.828125 -8.367188 14.390625 -7.640625 C 14.960938 -6.921875 15.25 -6.039062 15.25 -5 C 15.25 -3.394531 14.765625 -2.160156 13.796875 -1.296875 C 12.835938 -0.429688 11.414062 0 9.53125 0 Z M 8.59375 -10.015625 C 10.125 -10.015625 10.890625 -10.707031 10.890625 -12.09375 C 10.890625 -12.800781 10.695312 -13.328125 10.3125 -13.671875 C 9.9375 -14.015625 9.363281 -14.1875 8.59375 -14.1875 L 5.453125 -14.1875 L 5.453125 -10.015625 Z M 9.203125 -2.609375 C 11.015625 -2.609375 11.921875 -3.429688 11.921875 -5.078125 C 11.921875 -6.734375 11.015625 -7.5625 9.203125 -7.5625 L 5.453125 -7.5625 L 5.453125 -2.609375 Z M 9.203125 -2.609375 "/></g></g></g></svg>